<svg width="566" height="469" viewBox="0 0 566 469" fill="none" xmlns="http://www.w3.org/2000/svg">
<path d="M386.667 192.628C386.667 171.548 382.12 150.674 373.288 131.199C364.455 111.723 351.509 94.027 335.188 79.121C318.868 64.215 299.492 52.3909 278.168 44.3238C256.845 36.2567 233.99 32.1047 210.909 32.1047C164.295 32.1047 119.591 49.0169 86.6296 79.121C53.6687 109.225 35.1514 150.055 35.1514 192.628C35.1514 235.202 53.6687 276.032 86.6296 306.136C119.591 336.24 164.295 353.152 210.909 353.152C257.523 353.152 302.227 336.24 335.188 306.136C368.149 276.032 386.667 235.202 386.667 192.628V192.628ZM350.285 176.576H298.788C295.889 138.823 281.726 102.516 257.836 71.5935C282.38 79.5549 304.02 93.5864 320.344 112.123C336.668 130.66 347.033 152.974 350.285 176.576V176.576ZM159.588 208.681H263.636C259.138 248.339 240.63 285.584 210.909 314.787C181.207 285.706 163.124 248.319 159.588 208.681V208.681ZM159.588 176.576C163.681 137.116 181.691 99.9374 210.909 70.6304C240.871 99.6229 259.42 136.895 263.636 176.576H159.588ZM165.915 71.1119C141.899 102.206 127.509 138.64 124.261 176.576H71.5332C74.8534 152.682 85.4639 130.122 102.153 111.474C118.842 92.8247 140.937 78.8384 165.915 71.1119V71.1119ZM71.5332 208.681H124.261C127.155 246.585 141.447 283.024 165.564 313.984C140.676 306.22 118.671 292.236 102.049 273.622C85.4278 255.007 74.8553 232.508 71.5332 208.681V208.681ZM256.957 313.824C281.008 282.853 295.46 246.528 298.788 208.681H350.636C347.312 232.442 336.778 254.881 320.224 273.461C303.67 292.041 281.755 306.022 256.957 313.824V313.824Z" fill="#314A72"/>
<g filter="url(#filter0_d_256_2)">
<path d="M354.558 404.791C364.265 404.791 372.134 397.604 372.134 388.738C372.134 379.873 364.265 372.686 354.558 372.686C344.851 372.686 336.982 379.873 336.982 388.738C336.982 397.604 344.851 404.791 354.558 404.791Z" fill="#6B9EEF"/>
<path d="M354.558 308.477C331.811 308.476 309.949 316.532 293.57 330.95C290.214 333.909 288.282 337.964 288.2 342.224C288.118 346.484 289.891 350.599 293.131 353.664C296.371 356.729 300.811 358.494 305.475 358.569C310.139 358.644 314.645 357.024 318.001 354.065C327.982 345.718 341.025 341.088 354.558 341.088C368.092 341.088 381.135 345.718 391.116 354.065C394.472 357.024 398.978 358.644 403.642 358.569C408.306 358.494 412.746 356.729 415.986 353.664C419.225 350.599 420.999 346.484 420.917 342.224C420.834 337.964 418.902 333.909 415.546 330.95C399.168 316.532 377.306 308.476 354.558 308.477V308.477Z" fill="#6B9EEF"/>
<path d="M354.559 228.215C333.331 228.228 312.323 232.143 292.787 239.727C273.25 247.311 255.585 258.409 240.844 272.359C239.239 273.909 237.985 275.731 237.152 277.723C236.32 279.716 235.924 281.838 235.99 283.97C236.055 286.101 236.579 288.2 237.533 290.147C238.486 292.093 239.85 293.849 241.547 295.314C244.973 298.273 249.545 299.868 254.259 299.747C256.593 299.687 258.891 299.209 261.022 298.338C263.153 297.467 265.076 296.221 266.68 294.672C278.157 283.797 291.916 275.147 307.136 269.238C322.356 263.33 338.724 260.285 355.262 260.285C371.799 260.285 388.167 263.33 403.387 269.238C418.607 275.147 432.367 283.797 443.843 294.672C445.471 296.189 447.412 297.395 449.554 298.222C451.696 299.049 453.997 299.479 456.322 299.488C459.757 299.476 463.112 298.545 465.974 296.81C468.836 295.076 471.079 292.613 472.425 289.727C473.771 286.841 474.162 283.658 473.549 280.571C472.936 277.485 471.347 274.63 468.977 272.359C454.153 258.331 436.374 247.188 416.71 239.601C397.046 232.015 375.905 228.141 354.559 228.215V228.215Z" fill="#6B9EEF"/>
<path d="M525.394 211.039C479.529 170.628 418.286 148.046 354.558 148.046C290.83 148.046 229.587 170.628 183.722 211.039C180.756 214.051 179.146 217.976 179.216 222.027C179.287 226.078 181.031 229.954 184.101 232.879C187.17 235.804 191.336 237.561 195.764 237.798C200.193 238.034 204.555 236.732 207.976 234.154C247.304 199.435 299.861 180.027 354.558 180.027C409.255 180.027 461.812 199.435 501.14 234.154C504.398 237.022 508.742 238.632 513.267 238.649C515.635 238.64 517.976 238.195 520.15 237.34C522.325 236.485 524.288 235.238 525.922 233.672C529.126 230.602 530.869 226.497 530.77 222.256C530.672 218.015 528.739 213.982 525.394 211.039V211.039Z" fill="#6B9EEF"/>
</g>
<defs>
<filter id="filter0_d_256_2" x="168.214" y="146.046" width="363.56" height="268.745" filterUnits="userSpaceOnUse" color-interpolation-filters="sRGB">
<feFlood flood-opacity="0" result="BackgroundImageFix"/>
<feColorMatrix in="SourceAlpha" type="matrix" values="0 0 0 0 0 0 0 0 0 0 0 0 0 0 0 0 0 0 127 0" result="hardAlpha"/>
<feOffset dx="-5" dy="4"/>
<feGaussianBlur stdDeviation="3"/>
<feComposite in2="hardAlpha" operator="out"/>
<feColorMatrix type="matrix" values="0 0 0 0 0 0 0 0 0 0 0 0 0 0 0 0 0 0 0.4 0"/>
<feBlend mode="normal" in2="BackgroundImageFix" result="effect1_dropShadow_256_2"/>
<feBlend mode="normal" in="SourceGraphic" in2="effect1_dropShadow_256_2" result="shape"/>
</filter>
</defs>
</svg>
