<svg width="152" height="115" viewBox="0 0 152 115" fill="none" xmlns="http://www.w3.org/2000/svg">
<path d="M102.578 51.2769C102.578 46.4781 101.453 41.7263 99.2684 37.2927C97.0834 32.8592 93.8809 28.8307 89.8436 25.4374C85.8063 22.0442 81.0134 19.3524 75.7385 17.516C70.4635 15.6796 64.8099 14.7344 59.1003 14.7344C47.5693 14.7344 36.5107 18.5844 28.357 25.4374C20.2034 32.2905 15.6227 41.5853 15.6227 51.2769C15.6227 60.9686 20.2034 70.2634 28.357 77.1164C36.5107 83.9695 47.5693 87.8195 59.1003 87.8195C70.6313 87.8195 81.69 83.9695 89.8436 77.1164C97.9972 70.2634 102.578 60.9686 102.578 51.2769V51.2769ZM93.578 47.6227H80.8391C80.122 39.0284 76.6186 30.7632 70.7088 23.7238C76.7803 25.5362 82.1335 28.7304 86.1716 32.9503C90.2096 37.1701 92.7737 42.2497 93.578 47.6227V47.6227ZM46.4049 54.9312H72.1436C71.0309 63.9593 66.4526 72.4379 59.1003 79.0858C51.7529 72.4657 47.2796 63.9546 46.4049 54.9312V54.9312ZM46.4049 47.6227C47.4174 38.6399 51.8726 30.1762 59.1003 23.5046C66.512 30.1046 71.1007 38.5895 72.1436 47.6227H46.4049ZM47.9701 23.6142C42.0291 30.6926 38.4693 38.9867 37.6659 47.6227H24.6226C25.4439 42.1833 28.0687 37.0477 32.1971 32.8024C36.3256 28.5571 41.7913 25.3731 47.9701 23.6142V23.6142ZM24.6226 54.9312H37.6659C38.3819 63.5599 41.9175 71.8551 47.8831 78.9031C41.7266 77.1356 36.2832 73.9523 32.1715 69.7148C28.0597 65.4773 25.4444 60.3555 24.6226 54.9312V54.9312ZM70.4914 78.8666C76.4409 71.8163 80.0159 63.547 80.8391 54.9312H93.665C92.8428 60.3404 90.2369 65.4485 86.1418 69.6782C82.0467 73.9079 76.6257 77.0906 70.4914 78.8666V78.8666Z" fill="#314A72"/>
<g filter="url(#filter0_d_206_218)">
<path d="M94.6351 99.5749C97.0363 99.5749 98.9829 97.9388 98.9829 95.9206C98.9829 93.9024 97.0363 92.2664 94.6351 92.2664C92.2339 92.2664 90.2874 93.9024 90.2874 95.9206C90.2874 97.9388 92.2339 99.5749 94.6351 99.5749Z" fill="#6B9EEF"/>
<path d="M94.6352 77.6494C89.008 77.6492 83.6001 79.4831 79.5485 82.7653C78.7183 83.4389 78.2404 84.3621 78.22 85.3318C78.1996 86.3015 78.6384 87.2383 79.4398 87.9361C80.2412 88.6339 81.3396 89.0355 82.4933 89.0527C83.6471 89.0698 84.7616 88.701 85.5919 88.0274C88.061 86.1272 91.2874 85.0732 94.6352 85.0732C97.983 85.0732 101.209 86.1272 103.679 88.0274C104.509 88.701 105.623 89.0698 106.777 89.0527C107.931 89.0355 109.029 88.6339 109.831 87.9361C110.632 87.2383 111.071 86.3015 111.05 85.3318C111.03 84.3621 110.552 83.4389 109.722 82.7653C105.67 79.4831 100.262 77.6492 94.6352 77.6494V77.6494Z" fill="#6B9EEF"/>
<path d="M94.6353 59.3782C89.3841 59.3811 84.1873 60.2723 79.3546 61.9988C74.5218 63.7252 70.1519 66.2516 66.5053 69.4274C66.1085 69.7801 65.7982 70.195 65.5922 70.6485C65.3862 71.102 65.2885 71.5852 65.3046 72.0704C65.3208 72.5557 65.4505 73.0335 65.6863 73.4766C65.9222 73.9197 66.2596 74.3194 66.6792 74.653C67.5267 75.3265 68.6579 75.6895 69.8239 75.6621C70.4012 75.6486 70.9697 75.5395 71.4969 75.3413C72.0241 75.1431 72.4997 74.8595 72.8965 74.5068C75.7355 72.0311 79.1392 70.0619 82.9042 68.7169C86.6692 67.3719 90.7182 66.6787 94.8092 66.6787C98.9002 66.6787 102.949 67.3719 106.714 68.7169C110.479 70.0619 113.883 72.0311 116.722 74.5068C117.125 74.8521 117.605 75.1268 118.135 75.3149C118.664 75.5031 119.234 75.6011 119.809 75.6031C120.658 75.6003 121.489 75.3885 122.196 74.9936C122.904 74.5987 123.459 74.0381 123.792 73.3811C124.125 72.7241 124.222 71.9995 124.07 71.2969C123.919 70.5942 123.525 69.9443 122.939 69.4274C119.272 66.2338 114.874 63.6972 110.01 61.9701C105.146 60.2431 99.9157 59.3614 94.6353 59.3782V59.3782Z" fill="#6B9EEF"/>
<path d="M136.895 55.468C125.55 46.2687 110.4 41.1279 94.6351 41.1279C78.8705 41.1279 63.7207 46.2687 52.3749 55.468C51.6412 56.1537 51.2431 57.0473 51.2605 57.9694C51.2778 58.8916 51.7094 59.7741 52.4686 60.4399C53.2279 61.1058 54.2585 61.5058 55.354 61.5596C56.4494 61.6134 57.5285 61.3171 58.3748 60.7301C68.1034 52.8264 81.1047 48.4084 94.6351 48.4084C108.166 48.4084 121.167 52.8264 130.895 60.7301C131.701 61.3831 132.776 61.7496 133.895 61.7533C134.481 61.7514 135.06 61.6501 135.598 61.4555C136.136 61.2608 136.622 60.9768 137.026 60.6205C137.818 59.9214 138.25 58.9871 138.225 58.0216C138.201 57.0562 137.723 56.1381 136.895 55.468V55.468Z" fill="#6B9EEF"/>
</g>
<path d="M28.6458 92.3804L31.8804 85.0635L32.7664 85.4552L29.5319 92.7721L28.6458 92.3804Z" fill="#2E2E2E"/>
<path d="M20.0649 87.7201L24.2088 80.877L25.0107 81.3626L25.486 88.9936L25.5529 89.0341L28.8065 83.6612L29.6352 84.163L25.4912 91.0061L24.6893 90.5205L24.2087 82.868L24.1419 82.8276L20.8801 88.2138L20.0649 87.7201Z" fill="#2E2E2E"/>
<path d="M17.5749 84.8799L16.9867 85.5065L12.6118 81.4004L13.1999 80.7738L15.0342 82.4954L19.9208 77.2887L20.6272 77.9516L15.7406 83.1583L17.5749 84.8799Z" fill="#2E2E2E"/>
<path d="M17.183 74.5543L10.5669 79.0519L7.85257 75.0591L8.56327 74.5759L10.733 77.7676L12.9685 76.2479L10.9393 73.263L11.65 72.7798L13.6792 75.7648L15.9276 74.2363L13.7227 70.9929L14.4334 70.5098L17.183 74.5543Z" fill="#2E2E2E"/>
<path d="M13.422 68.784L5.9295 71.5881L4.98203 69.0565C4.76296 68.4711 4.68314 67.9532 4.74256 67.5028C4.79955 67.0532 4.96743 66.6734 5.24622 66.3633C5.52501 66.0532 5.88512 65.8156 6.32657 65.6503C6.76803 65.4851 7.19325 65.4289 7.60225 65.4816C8.01125 65.5343 8.38314 65.7107 8.71791 66.0108C9.05024 66.3119 9.32503 66.7526 9.54228 67.3331L10.309 69.3818L9.48953 69.6885L8.73374 67.6691C8.58404 67.2691 8.40502 66.969 8.19667 66.769C7.98741 66.5664 7.75493 66.4505 7.49922 66.421C7.24017 66.3901 6.96065 66.4307 6.66065 66.543C6.36066 66.6553 6.11947 66.8095 5.93707 67.0057C5.75468 67.2018 5.6486 67.4459 5.61884 67.7379C5.58665 68.0308 5.64631 68.3796 5.79783 68.7845L6.3948 70.3796L13.0824 67.8767L13.422 68.784ZM8.73632 66.5169L11.412 63.4134L11.8063 64.4671L9.11969 67.5413L8.73632 66.5169Z" fill="#2E2E2E"/>
<path d="M2.4846 56.9651L10.4455 56.1747L10.5381 57.1076L4.71827 62.0662L4.72599 62.144L10.9765 61.5234L11.0722 62.4874L3.11136 63.2778L3.01874 62.3449L8.85256 57.3691L8.84484 57.2914L2.57877 57.9135L2.4846 56.9651Z" fill="#2E2E2E"/>
<path d="M10.4598 53.7428L2.55959 52.4832L3.3198 47.7153L4.16845 47.8506L3.56078 51.6618L6.23019 52.0874L6.7985 48.5231L7.64715 48.6584L7.07884 52.2228L9.76368 52.6508L10.3812 48.7779L11.2298 48.9132L10.4598 53.7428Z" fill="#2E2E2E"/>
<path d="M4.92649 44.4288L4.1498 44.061L6.71777 38.6383L7.49446 39.0061L6.41778 41.2797L12.8713 44.3358L12.4567 45.2114L6.00316 42.1552L4.92649 44.4288Z" fill="#2E2E2E"/>
<path d="M17.6334 30.9514L17.0594 31.7892L12.1203 24.8442L12.6855 24.0192L20.9453 26.1178L20.3713 26.9556L13.4646 25.1213L13.4293 25.1728L17.6334 30.9514ZM15.2675 28.8757L17.5814 25.4986L18.2903 25.9844L15.9764 29.3615L15.2675 28.8757Z" fill="#2E2E2E"/>
<path d="M23.0731 16.4095L22.3549 17.0596C22.1255 16.8915 21.8869 16.7773 21.6391 16.717C21.3933 16.655 21.147 16.6391 20.9003 16.6692C20.6538 16.6956 20.4153 16.764 20.1849 16.8742C19.9545 16.9844 19.7408 17.1287 19.5439 17.3069C19.1848 17.632 18.9416 18.0172 18.8144 18.4626C18.6891 18.9062 18.7004 19.3824 18.8484 19.8913C18.9983 20.3984 19.3057 20.9087 19.7706 21.4223C20.2355 21.9358 20.7128 22.2924 21.2025 22.4919C21.6941 22.6896 22.1669 22.7482 22.6208 22.6675C23.0766 22.5851 23.484 22.3814 23.8431 22.0563C24.0401 21.878 24.2048 21.6797 24.3373 21.4614C24.4699 21.2431 24.5624 21.0135 24.615 20.7728C24.6677 20.5283 24.6754 20.2807 24.6381 20.03C24.601 19.7755 24.511 19.5268 24.3682 19.2837L25.0864 18.6336C25.3068 18.9856 25.4538 19.346 25.5277 19.7147C25.6015 20.0834 25.6083 20.4479 25.548 20.8081C25.4859 21.1664 25.3619 21.5087 25.1761 21.835C24.9921 22.1596 24.7506 22.4573 24.4513 22.7282C23.9455 23.1861 23.3838 23.4697 22.7662 23.5791C22.1487 23.6885 21.5208 23.6176 20.8824 23.3665C20.2441 23.1153 19.6418 22.677 19.0756 22.0514C18.5093 21.4259 18.1329 20.7831 17.9464 20.123C17.7598 19.4629 17.7516 18.831 17.9217 18.2274C18.0919 17.6237 18.4299 17.0929 18.9357 16.6351C19.235 16.3642 19.5552 16.1533 19.8964 16.0025C20.2395 15.85 20.5933 15.7616 20.9577 15.7373C21.3204 15.7111 21.6815 15.753 22.0411 15.8631C22.3989 15.9712 22.743 16.1534 23.0731 16.4095Z" fill="#2E2E2E"/>
<path d="M30.8245 11.6027L29.9839 12.0843C29.7957 11.871 29.587 11.7084 29.3579 11.5966C29.131 11.4834 28.8938 11.4152 28.6464 11.3919C28.3999 11.3651 28.1523 11.3808 27.9037 11.4393C27.655 11.4977 27.4155 11.5929 27.185 11.725C26.7647 11.9657 26.4448 12.2901 26.2253 12.698C26.008 13.1045 25.9173 13.5722 25.9531 14.1009C25.9912 14.6283 26.1824 15.1926 26.5267 15.7936C26.8711 16.3947 27.2611 16.845 27.6968 17.1446C28.1349 17.4429 28.5842 17.6012 29.0448 17.6194C29.5077 17.6363 29.9493 17.5244 30.3696 17.2836C30.6 17.1516 30.8034 16.9931 30.9795 16.8081C31.1557 16.6231 31.2952 16.4187 31.3979 16.1947C31.5017 15.9672 31.5622 15.727 31.5793 15.4741C31.5974 15.2176 31.5627 14.9553 31.4752 14.6873L32.3158 14.2058C32.4558 14.5968 32.5224 14.9803 32.5157 15.3562C32.5091 15.7322 32.4377 16.0897 32.3018 16.4287C32.1646 16.7654 31.9703 17.0733 31.719 17.3523C31.47 17.6301 31.1703 17.8693 30.8201 18.0699C30.2281 18.4091 29.6187 18.5661 28.992 18.541C28.3654 18.5158 27.7671 18.3124 27.1972 17.9306C26.6273 17.5488 26.1327 16.9918 25.7132 16.2597C25.2938 15.5276 25.0635 14.8191 25.0224 14.1344C24.9813 13.4497 25.1083 12.8307 25.4036 12.2773C25.6988 11.724 26.1425 11.2778 26.7345 10.9386C27.0847 10.738 27.4426 10.6004 27.8082 10.5261C28.176 10.4504 28.5405 10.4397 28.9017 10.4938C29.2616 10.5458 29.6054 10.6639 29.9331 10.8483C30.2596 11.0305 30.5567 11.2819 30.8245 11.6027Z" fill="#2E2E2E"/>
<path d="M34.8917 15.7754L32.1953 8.24353L36.7409 6.6162L37.0305 7.42529L33.397 8.7261L34.3081 11.2711L37.7063 10.0545L37.9959 10.8636L34.5977 12.0801L35.5141 14.6398L39.2065 13.3179L39.4961 14.127L34.8917 15.7754Z" fill="#2E2E2E"/>
<path d="M45.0073 6.68126C44.8859 6.30159 44.6407 6.03612 44.2718 5.88485C43.903 5.73358 43.4808 5.70406 43.0052 5.7963C42.6576 5.86374 42.3642 5.979 42.1253 6.14206C41.8889 6.30464 41.7169 6.49848 41.6094 6.7236C41.5044 6.94822 41.4762 7.1858 41.5248 7.43634C41.5655 7.64597 41.6503 7.81654 41.7793 7.94803C41.9103 8.07648 42.0647 8.17518 42.2426 8.24413C42.4199 8.31054 42.6017 8.35883 42.788 8.38902C42.9737 8.41666 43.1432 8.43552 43.2963 8.4456L44.1356 8.50563C44.3505 8.51964 44.5924 8.54965 44.8613 8.59564C45.1328 8.64114 45.3994 8.72338 45.6612 8.84236C45.9251 8.9583 46.157 9.12818 46.357 9.35202C46.5569 9.57586 46.6926 9.87184 46.764 10.24C46.8463 10.6644 46.8095 11.0694 46.6535 11.4551C46.5001 11.8403 46.2308 12.1751 45.8456 12.4594C45.4629 12.7432 44.9699 12.9436 44.3666 13.0606C43.8042 13.1697 43.2995 13.1734 42.8527 13.0718C42.4085 12.9696 42.0373 12.779 41.7391 12.4999C41.4435 12.2204 41.2387 11.8688 41.1247 11.4453L42.1064 11.2549C42.1895 11.5464 42.3368 11.7725 42.5483 11.9331C42.7619 12.0906 43.0121 12.1906 43.2989 12.2332C43.5877 12.2726 43.8881 12.2621 44.2 12.2016C44.563 12.1312 44.8775 12.0092 45.1436 11.8355C45.4092 11.6594 45.6058 11.4488 45.7333 11.2039C45.8604 10.9564 45.8962 10.6895 45.8406 10.4032C45.7901 10.1424 45.676 9.94434 45.4986 9.80899C45.3211 9.67364 45.1036 9.5779 44.846 9.52175C44.5884 9.46561 44.3141 9.42597 44.0231 9.40283L43.0032 9.31418C42.3554 9.2568 41.8209 9.0992 41.3995 8.84139C40.9781 8.58358 40.7161 8.19008 40.6134 7.66088C40.5281 7.22116 40.5726 6.81462 40.7469 6.44127C40.9232 6.06487 41.1958 5.74673 41.5645 5.48687C41.9353 5.22395 42.3712 5.04389 42.8723 4.9467C43.3785 4.84851 43.846 4.85199 44.2749 4.95713C44.7033 5.05972 45.0628 5.24465 45.3534 5.51191C45.6466 5.77868 45.838 6.10895 45.9276 6.50273L45.0073 6.68126Z" fill="#2E2E2E"/>
<path d="M52.9095 5.93034C52.8434 5.53725 52.6386 5.23955 52.2951 5.03724C51.9515 4.83493 51.5378 4.74554 51.054 4.76906C50.7003 4.78625 50.3935 4.85852 50.1338 4.98587C49.8766 5.11309 49.6788 5.28044 49.5403 5.48794C49.4043 5.6953 49.3426 5.92644 49.355 6.18135C49.3653 6.39464 49.425 6.57555 49.5339 6.72408C49.6453 6.86989 49.784 6.98959 49.9502 7.08319C50.1163 7.1742 50.2894 7.24791 50.4694 7.30434C50.6493 7.35817 50.8143 7.40099 50.9645 7.4328L51.7867 7.61184C51.9974 7.65634 52.2326 7.72052 52.4922 7.80437C52.7543 7.88809 53.0065 8.0075 53.2487 8.16259C53.4934 8.31495 53.6987 8.51616 53.8647 8.76621C54.0307 9.01625 54.1228 9.32856 54.141 9.70312C54.162 10.1349 54.0678 10.5306 53.8584 10.8901C53.6517 11.2495 53.3374 11.5425 52.9156 11.769C52.4964 11.9953 51.9799 12.1234 51.3661 12.1532C50.7938 12.1811 50.2938 12.1128 49.8661 11.9485C49.4409 11.784 49.1007 11.5425 48.8453 11.2238C48.5925 10.9049 48.4399 10.5278 48.3875 10.0923L49.3863 10.0438C49.427 10.3442 49.5406 10.589 49.727 10.7781C49.916 10.9644 50.1494 11.0991 50.4272 11.1821C50.7074 11.2623 51.0062 11.2947 51.3236 11.2793C51.6929 11.2613 52.0217 11.1854 52.3098 11.0514C52.5977 10.9149 52.8223 10.7345 52.9835 10.5103C53.1446 10.2834 53.218 10.0244 53.2038 9.73303C53.1909 9.46772 53.1063 9.25543 52.95 9.09617C52.7936 8.9369 52.5919 8.81113 52.345 8.71885C52.098 8.62656 51.8322 8.54823 51.5475 8.48385L50.5506 8.25073C49.9176 8.1016 49.411 7.86942 49.0306 7.55418C48.6503 7.23894 48.447 6.81211 48.4209 6.27369C48.3991 5.8263 48.5011 5.43025 48.7268 5.08555C48.955 4.73813 49.2701 4.46208 49.6721 4.25743C50.0766 4.05005 50.5337 3.93396 51.0435 3.90918C51.5585 3.88414 52.0208 3.95423 52.4304 4.11943C52.8398 4.28204 53.1692 4.51632 53.4188 4.82227C53.6709 5.1281 53.8133 5.48228 53.8459 5.88482L52.9095 5.93034Z" fill="#2E2E2E"/>
<path d="M66.4943 3.95964L65.4697 11.8938L64.5089 11.7697L65.5335 3.83557L66.4943 3.95964Z" fill="#2E2E2E"/>
<path d="M76.1688 6.07125L73.9835 13.767L73.0817 13.5109L70.6039 6.27775L70.5287 6.25641L68.813 12.2988L67.8811 12.0342L70.0663 4.3384L70.9682 4.59449L73.4567 11.847L73.5319 11.8683L75.2519 5.81089L76.1688 6.07125Z" fill="#2E2E2E"/>
<path d="M87.6051 10.7253L87.9969 9.96048L93.337 12.6961L92.9451 13.4609L90.7062 12.314L87.4506 18.6692L86.5884 18.2275L89.844 11.8723L87.6051 10.7253Z" fill="#2E2E2E"/>
<path d="M90.9542 20.61L96.0348 14.4304L96.7831 15.0456L94.5206 17.7975L97.8156 20.5065L100.078 17.7546L100.826 18.3698L95.7458 24.5495L94.9975 23.9342L97.2699 21.1703L93.9749 18.4613L91.7025 21.2253L90.9542 20.61Z" fill="#2E2E2E"/>
<path d="M96.9276 25.6899L103.116 20.62L106.176 24.3549L105.511 24.8995L103.065 21.914L100.974 23.6271L103.262 26.4191L102.597 26.9637L100.309 24.1717L98.2063 25.8946L100.692 28.9284L100.027 29.473L96.9276 25.6899Z" fill="#2E2E2E"/>
<path d="M116.887 97.7582L109.546 93.899L110.218 93.1794L116.122 96.4027L116.175 96.3456L112.574 90.6549L113.32 89.8553L119.246 93.0558L119.299 92.9987L115.676 87.3308L116.348 86.6112L120.704 93.6688L120.022 94.3998L114.156 91.341L114.114 91.3867L117.57 97.0271L116.887 97.7582ZM124.445 83.7981C125.062 84.3738 125.491 84.9826 125.732 85.6247C125.974 86.2668 126.035 86.8957 125.916 87.5116C125.797 88.1274 125.505 88.6847 125.04 89.1835C124.574 89.6823 124.038 90.0122 123.432 90.1731C122.826 90.3341 122.194 90.3162 121.537 90.1197C120.88 89.9231 120.243 89.5369 119.626 88.9613C119.009 88.3856 118.58 87.7767 118.339 87.1346C118.097 86.4925 118.036 85.8636 118.155 85.2478C118.274 84.6319 118.566 84.0746 119.031 83.5758C119.497 83.077 120.033 82.7471 120.639 82.5862C121.245 82.4253 121.877 82.4431 122.534 82.6397C123.191 82.8362 123.828 83.2224 124.445 83.7981ZM123.805 84.4834C123.299 84.0108 122.792 83.6966 122.286 83.5409C121.781 83.3833 121.305 83.3647 120.858 83.4852C120.412 83.6037 120.024 83.8401 119.694 84.1942C119.363 84.5483 119.153 84.9526 119.064 85.4071C118.976 85.8597 119.028 86.3333 119.218 86.8279C119.41 87.3206 119.759 87.8032 120.266 88.2759C120.772 88.7485 121.278 89.0636 121.783 89.2213C122.289 89.377 122.765 89.3956 123.211 89.277C123.658 89.1566 124.047 88.9193 124.377 88.5652C124.708 88.211 124.917 87.8077 125.004 87.3551C125.094 86.9006 125.042 86.427 124.85 85.9343C124.66 85.4397 124.312 84.9561 123.805 84.4834ZM128.481 85.3364L122.632 79.878L124.476 77.9018C124.903 77.4449 125.331 77.1427 125.761 76.9952C126.188 76.846 126.603 76.827 127.005 76.9385C127.407 77.0499 127.78 77.2664 128.125 77.588C128.469 77.9096 128.709 78.2652 128.844 78.6549C128.979 79.0445 128.987 79.456 128.867 79.8895C128.746 80.3211 128.474 80.7635 128.051 81.2166L126.558 82.8158L125.919 82.2188L127.39 80.6425C127.681 80.3302 127.87 80.0363 127.957 79.7606C128.045 79.483 128.045 79.2232 127.957 78.9812C127.87 78.7355 127.709 78.5034 127.474 78.2848C127.24 78.0663 126.995 77.919 126.738 77.8431C126.481 77.7673 126.215 77.781 125.941 77.8845C125.664 77.9861 125.378 78.195 125.083 78.511L123.921 79.7561L129.142 84.6282L128.481 85.3364ZM128.423 80.1315L132.393 81.1442L131.626 81.9666L127.676 80.9311L128.423 80.1315ZM133.281 80.1925L127.433 74.7341L128.094 74.0259L133.314 78.8979L135.851 76.1793L136.48 76.7656L133.281 80.1925ZM139.187 73.8642L137.503 75.669L131.654 70.2106L133.414 68.3258C133.943 67.7585 134.513 67.3823 135.124 67.1972C135.733 67.0103 136.356 67.0128 136.993 67.2046C137.627 67.3946 138.248 67.7721 138.853 68.3371C139.462 68.9057 139.886 69.5037 140.123 70.1312C140.358 70.7569 140.4 71.3874 140.249 72.0228C140.096 72.6564 139.742 73.2702 139.187 73.8642ZM137.536 74.3744L138.517 73.3235C138.968 72.8399 139.249 72.3521 139.359 71.86C139.469 71.368 139.425 70.8831 139.226 70.4054C139.027 69.9276 138.689 69.4667 138.213 69.0225C137.741 68.5818 137.263 68.2796 136.778 68.1157C136.291 67.9501 135.814 67.9353 135.345 68.0712C134.874 68.2054 134.426 68.5009 133.999 68.9578L132.944 70.0887L137.536 74.3744Z" fill="#2E2E2E"/>
<defs>
<filter id="filter0_d_206_218" x="40.2599" y="39.1279" width="98.9663" height="70.447" filterUnits="userSpaceOnUse" color-interpolation-filters="sRGB">
<feFlood flood-opacity="0" result="BackgroundImageFix"/>
<feColorMatrix in="SourceAlpha" type="matrix" values="0 0 0 0 0 0 0 0 0 0 0 0 0 0 0 0 0 0 127 0" result="hardAlpha"/>
<feOffset dx="-5" dy="4"/>
<feGaussianBlur stdDeviation="3"/>
<feComposite in2="hardAlpha" operator="out"/>
<feColorMatrix type="matrix" values="0 0 0 0 0 0 0 0 0 0 0 0 0 0 0 0 0 0 0.4 0"/>
<feBlend mode="normal" in2="BackgroundImageFix" result="effect1_dropShadow_206_218"/>
<feBlend mode="normal" in="SourceGraphic" in2="effect1_dropShadow_206_218" result="shape"/>
</filter>
</defs>
</svg>
