<svg width="161" height="121" viewBox="0 0 161 121" fill="none" xmlns="http://www.w3.org/2000/svg">
<path d="M109.538 57.277C109.538 52.4782 108.413 47.7263 106.228 43.2928C104.043 38.8592 100.841 34.8308 96.8035 31.4375C92.7662 28.0442 87.9733 25.3525 82.6984 23.5161C77.4234 21.6796 71.7698 20.7344 66.0602 20.7344C54.5292 20.7344 43.4706 24.5844 35.3169 31.4375C27.1633 38.2906 22.5826 47.5853 22.5826 57.277C22.5826 66.9687 27.1633 76.2634 35.3169 83.1165C43.4706 89.9696 54.5292 93.8196 66.0602 93.8196C77.5912 93.8196 88.6499 89.9696 96.8035 83.1165C104.957 76.2634 109.538 66.9687 109.538 57.277ZM100.538 53.6227H87.799C87.0819 45.0285 83.5785 36.7633 77.6687 29.7239C83.7402 31.5363 89.0934 34.7305 93.1315 38.9503C97.1695 43.1702 99.7336 48.2498 100.538 53.6227ZM53.3648 60.9313H79.1035C77.9908 69.9594 73.4125 78.4379 66.0602 85.0859C58.7128 78.4657 54.2395 69.9547 53.3648 60.9313ZM53.3648 53.6227C54.3773 44.64 58.8325 36.1763 66.0602 29.5047C73.4719 36.1047 78.0606 44.5896 79.1035 53.6227H53.3648ZM54.93 29.6143C48.989 36.6927 45.4292 44.9867 44.6258 53.6227H31.5825C32.4038 48.1834 35.0286 43.0478 39.157 38.8024C43.2855 34.5571 48.7512 31.3732 54.93 29.6143ZM31.5825 60.9313H44.6258C45.3418 69.5599 48.8774 77.8551 54.843 84.9032C48.6865 83.1357 43.2431 79.9524 39.1314 75.7149C35.0196 71.4773 32.4043 66.3555 31.5825 60.9313ZM77.4513 84.8666C83.4008 77.8164 86.9758 69.5471 87.799 60.9313H100.625C99.8027 66.3404 97.1968 71.4485 93.1017 75.6782C89.0066 79.9079 83.5856 83.0906 77.4513 84.8666Z" fill="#314A72"/>
<g filter="url(#filter0_d_255_105)">
<path d="M101.595 105.575C103.996 105.575 105.943 103.939 105.943 101.921C105.943 99.9025 103.996 98.2665 101.595 98.2665C99.1938 98.2665 97.2473 99.9025 97.2473 101.921C97.2473 103.939 99.1938 105.575 101.595 105.575Z" fill="#6B9EEF"/>
<path d="M101.595 83.6494C95.9679 83.6493 90.56 85.4832 86.5084 88.7654C85.6782 89.4389 85.2003 90.3621 85.1799 91.3318C85.1595 92.3015 85.5983 93.2383 86.3997 93.9361C87.2011 94.634 88.2995 95.0356 89.4532 95.0527C90.607 95.0699 91.7215 94.7011 92.5518 94.0275C95.0209 92.1273 98.2473 91.0733 101.595 91.0733C104.943 91.0733 108.169 92.1273 110.638 94.0275C111.469 94.7011 112.583 95.0699 113.737 95.0527C114.891 95.0356 115.989 94.634 116.791 93.9361C117.592 93.2383 118.031 92.3015 118.01 91.3318C117.99 90.3621 117.512 89.4389 116.682 88.7654C112.63 85.4832 107.222 83.6493 101.595 83.6494Z" fill="#6B9EEF"/>
<path d="M101.595 65.3782C96.344 65.3811 91.1472 66.2724 86.3145 67.9988C81.4817 69.7253 77.1118 72.2517 73.4652 75.4274C73.0684 75.7801 72.7581 76.1951 72.5521 76.6486C72.3461 77.1021 72.2484 77.5853 72.2645 78.0705C72.2807 78.5557 72.4104 79.0336 72.6462 79.4767C72.8821 79.9198 73.2195 80.3195 73.6391 80.653C74.4866 81.3266 75.6178 81.6896 76.7838 81.6622C77.3611 81.6486 77.9296 81.5396 78.4568 81.3414C78.984 81.1431 79.4596 80.8596 79.8564 80.5068C82.6954 78.0312 86.0991 76.062 89.8641 74.717C93.6291 73.372 97.6781 72.6788 101.769 72.6788C105.86 72.6788 109.909 73.372 113.674 74.717C117.439 76.062 120.843 78.0312 123.682 80.5068C124.084 80.8521 124.565 81.1268 125.095 81.315C125.624 81.5032 126.193 81.6011 126.769 81.6031C127.618 81.6004 128.448 81.3885 129.156 80.9936C129.864 80.5987 130.419 80.0382 130.752 79.3812C131.085 78.7242 131.182 77.9996 131.03 77.2969C130.879 76.5943 130.485 75.9443 129.899 75.4274C126.232 72.2339 121.834 69.6972 116.97 67.9702C112.105 66.2431 106.876 65.3614 101.595 65.3782Z" fill="#6B9EEF"/>
<path d="M143.855 61.4681C132.509 52.2687 117.36 47.128 101.595 47.128C85.8304 47.128 70.6806 52.2687 59.3348 61.4681C58.6011 62.1538 58.203 63.0474 58.2204 63.9695C58.2377 64.8916 58.6693 65.7741 59.4285 66.44C60.1878 67.1059 61.2184 67.5058 62.3139 67.5596C63.4093 67.6135 64.4884 67.3172 65.3347 66.7302C75.0633 58.8265 88.0646 54.4085 101.595 54.4085C115.125 54.4085 128.127 58.8265 137.855 66.7302C138.661 67.3831 139.736 67.7496 140.855 67.7534C141.441 67.7515 142.02 67.6502 142.558 67.4555C143.096 67.2609 143.582 66.9769 143.986 66.6206C144.778 65.9215 145.21 64.9872 145.185 64.0217C145.161 63.0562 144.683 62.1381 143.855 61.4681Z" fill="#6B9EEF"/>
</g>
<path d="M123.029 111.133L113.686 106.221L114.54 105.305L122.055 109.408L122.123 109.335L117.539 102.092L118.489 101.075L126.03 105.148L126.098 105.075L121.488 97.8617L122.342 96.9458L127.886 105.928L127.018 106.859L119.553 102.966L119.499 103.024L123.897 110.203L123.029 111.133ZM132.647 93.3655C133.433 94.0982 133.979 94.8732 134.286 95.6904C134.593 96.5075 134.671 97.308 134.52 98.0918C134.369 98.8756 133.997 99.5849 133.405 100.22C132.812 100.855 132.13 101.274 131.359 101.479C130.587 101.684 129.783 101.661 128.947 101.411C128.11 101.161 127.3 100.67 126.514 99.9369C125.729 99.2042 125.183 98.4292 124.876 97.612C124.569 96.7948 124.491 95.9944 124.642 95.2106C124.793 94.4268 125.165 93.7175 125.757 93.0827C126.35 92.4478 127.032 92.028 127.803 91.8232C128.575 91.6183 129.379 91.641 130.215 91.8912C131.052 92.1414 131.862 92.6328 132.647 93.3655ZM131.833 94.2378C131.189 93.6363 130.544 93.2364 129.9 93.0382C129.257 92.8376 128.651 92.814 128.082 92.9673C127.515 93.1182 127.021 93.419 126.601 93.8697C126.18 94.3203 125.913 94.8349 125.799 95.4134C125.688 95.9894 125.753 96.5922 125.995 97.2217C126.24 97.8487 126.684 98.463 127.329 99.0646C127.973 99.6661 128.617 100.067 129.259 100.268C129.904 100.466 130.51 100.49 131.077 100.339C131.646 100.185 132.141 99.8834 132.561 99.4327C132.982 98.982 133.248 98.4687 133.359 97.8926C133.473 97.3142 133.408 96.7114 133.163 96.0844C132.921 95.4549 132.478 94.8394 131.833 94.2378ZM137.784 95.3234L130.34 88.3764L132.687 85.8612C133.23 85.2797 133.775 84.8951 134.322 84.7074C134.867 84.5174 135.395 84.4933 135.906 84.6351C136.417 84.7769 136.892 85.0525 137.331 85.4618C137.769 85.8711 138.075 86.3237 138.247 86.8196C138.418 87.3155 138.428 87.8393 138.276 88.391C138.122 88.9403 137.775 89.5034 137.237 90.0801L135.337 92.1154L134.523 91.3556L136.396 89.3493C136.767 88.9519 137.007 88.5778 137.117 88.2269C137.229 87.8737 137.229 87.543 137.118 87.235C137.006 86.9222 136.801 86.6268 136.503 86.3487C136.205 86.0705 135.893 85.8831 135.566 85.7865C135.239 85.6899 134.901 85.7075 134.551 85.8391C134.199 85.9685 133.835 86.2343 133.46 86.6366L131.981 88.2213L138.625 94.4221L137.784 95.3234ZM137.71 88.6989L142.763 89.9879L141.786 91.0346L136.76 89.7166L137.71 88.6989ZM143.894 88.7766L136.45 81.8296L137.291 80.9282L143.935 87.129L147.165 83.6689L147.964 84.4151L143.894 88.7766ZM151.411 80.7224L149.267 83.0194L141.823 76.0724L144.062 73.6735C144.736 72.9515 145.462 72.4727 146.239 72.2371C147.014 71.9993 147.807 72.0025 148.617 72.2465C149.425 72.4883 150.215 72.9688 150.985 73.6879C151.761 74.4116 152.299 75.1727 152.601 75.9713C152.901 76.7677 152.954 77.5702 152.762 78.3788C152.567 79.1852 152.116 79.9664 151.411 80.7224ZM149.309 81.3718L150.557 80.0343C151.131 79.4188 151.489 78.7979 151.629 78.1717C151.769 77.5454 151.713 76.9283 151.459 76.3203C151.206 75.7123 150.777 75.1256 150.171 74.5602C149.57 73.9994 148.961 73.6147 148.344 73.4062C147.725 73.1954 147.117 73.1765 146.52 73.3495C145.921 73.5203 145.35 73.8964 144.807 74.478L143.464 75.9173L149.309 81.3718Z" fill="#2E2E2E"/>
<path d="M44.929 104.176L46.313 94.0891L47.5345 94.2567L46.1505 104.344L44.929 104.176Z" fill="#2E2E2E"/>
<path d="M33.6349 101.027L36.9386 91.3962L38.0672 91.7834L40.7214 101.145L40.8154 101.178L43.4094 93.6159L44.5756 94.016L41.2719 103.647L40.1433 103.26L37.4768 93.8724L37.3827 93.8402L34.7823 101.421L33.6349 101.027Z" fill="#2E2E2E"/>
<path d="M31.0547 98.5281L30.4591 99.4454L24.0543 95.2871L24.6499 94.3697L27.3353 96.1132L32.2841 88.4908L33.3183 89.1622L28.3694 96.7846L31.0547 98.5281Z" fill="#2E2E2E"/>
<path d="M29.0458 86.2199L21.7986 93.3717L17.4824 88.9979L18.2609 88.2297L21.7111 91.7259L24.1599 89.3094L20.9332 86.0396L21.7117 85.2714L24.9384 88.5411L27.4013 86.1106L23.8952 82.5578L24.6737 81.7895L29.0458 86.2199Z" fill="#2E2E2E"/>
<path d="M23.703 80.6242L15.0358 85.9673L13.2304 83.0387C12.813 82.3616 12.586 81.7345 12.5495 81.1574C12.5102 80.582 12.6265 80.0664 12.8984 79.6107C13.1704 79.1549 13.5616 78.7696 14.0723 78.4548C14.583 78.14 15.1002 77.9652 15.6239 77.9305C16.1476 77.8958 16.6553 78.0247 17.1471 78.3172C17.6361 78.6115 18.0876 79.0943 18.5016 79.7658L19.9626 82.1358L19.0146 82.7202L17.5745 80.3841C17.2892 79.9214 16.9919 79.5907 16.6826 79.3921C16.3715 79.1906 16.0526 79.1029 15.7261 79.129C15.395 79.154 15.0559 79.2735 14.7089 79.4874C14.3619 79.7014 14.0986 79.9532 13.919 80.243C13.7395 80.5328 13.667 80.8637 13.7016 81.2356C13.7334 81.6093 13.8936 82.0303 14.1823 82.4986L15.3199 84.3438L23.056 79.5746L23.703 80.6242ZM17.2945 78.9447L19.8731 74.4115L20.6245 75.6304L18.025 80.1297L17.2945 78.9447Z" fill="#2E2E2E"/>
<path d="M7.82108 69.1394L17.6516 66.488L17.9623 67.64L11.6886 75.0787L11.7145 75.1747L19.433 73.0929L19.7541 74.2833L9.92353 76.9347L9.61282 75.7827L15.9006 68.3197L15.8747 68.2237L8.13696 70.3106L7.82108 69.1394Z" fill="#2E2E2E"/>
<path d="M17.6012 65.2951L7.44078 64.6349L7.83919 58.503L8.93064 58.5739L8.61217 63.4755L12.0453 63.6985L12.3431 59.1145L13.4346 59.1854L13.1367 63.7695L16.5897 63.9938L16.9133 59.0128L18.0047 59.0838L17.6012 65.2951Z" fill="#2E2E2E"/>
<path d="M9.5317 55.2138L8.5092 54.8255L11.2203 47.6866L12.2428 48.0749L11.1061 51.068L19.6022 54.2945L19.1644 55.4471L10.6684 52.2206L9.5317 55.2138Z" fill="#2E2E2E"/>
<path d="M22.3743 38.749L21.8076 39.9108L14.2957 32.0866L14.8537 30.9427L25.6439 32.0466L25.0771 33.2084L16.0398 32.1851L16.0049 32.2566L22.3743 38.749ZM19.0089 36.5763L21.2933 31.8935L22.2763 32.3731L19.9919 37.0558L19.0089 36.5763Z" fill="#2E2E2E"/>
<path d="M26.1191 20.8258L25.2942 21.7422C24.9819 21.5591 24.6649 21.4455 24.3434 21.4014C24.0242 21.3548 23.7103 21.3666 23.4019 21.4368C23.0932 21.5024 22.8001 21.6198 22.5227 21.7893C22.2453 21.9588 21.9935 22.1692 21.7673 22.4204C21.3549 22.8786 21.0971 23.3979 20.9938 23.9784C20.8928 24.5563 20.969 25.1578 21.2224 25.7828C21.4781 26.4054 21.9336 27.0116 22.5889 27.6014C23.2442 28.1912 23.8948 28.5806 24.5407 28.7696C25.1889 28.9561 25.795 28.9689 26.3592 28.8078C26.9256 28.6442 27.415 28.3333 27.8274 27.8751C28.0536 27.6239 28.2364 27.3514 28.3758 27.0578C28.5153 26.7641 28.6026 26.4615 28.6379 26.1498C28.6729 25.8335 28.6505 25.519 28.5707 25.2064C28.4906 24.8891 28.3445 24.5858 28.1321 24.2966L28.957 23.3802C29.2816 23.7973 29.5147 24.2345 29.6561 24.6917C29.7974 25.149 29.8533 25.6095 29.8237 26.0734C29.7917 26.5351 29.6792 26.9846 29.4863 27.4218C29.2956 27.8566 29.0284 28.265 28.6847 28.6468C28.1037 29.2922 27.4294 29.7243 26.6618 29.943C25.8941 30.1617 25.0899 30.1535 24.2491 29.9185C23.4083 29.6834 22.5888 29.2066 21.7906 28.4882C20.9925 27.7698 20.4324 27.0048 20.1105 26.1933C19.7886 25.3818 19.6961 24.5828 19.8331 23.7965C19.9701 23.0101 20.3291 22.2942 20.9101 21.6488C21.2538 21.267 21.6318 20.9584 22.0442 20.7232C22.4589 20.4855 22.8953 20.3276 23.3535 20.2495C23.8093 20.1692 24.2719 20.1754 24.7415 20.2681C25.2086 20.3585 25.6678 20.5444 26.1191 20.8258Z" fill="#2E2E2E"/>
<path d="M35.9754 14.6895L34.8934 15.2806C34.6593 15.0044 34.398 14.7922 34.1093 14.644C33.8235 14.4942 33.5235 14.4013 33.2092 14.3653C32.8963 14.3247 32.5808 14.3384 32.2629 14.4064C31.945 14.4743 31.6377 14.5893 31.3411 14.7514C30.8001 15.047 30.3846 15.4515 30.0948 15.9648C29.8079 16.4766 29.6804 17.0693 29.7124 17.743C29.7472 18.4152 29.976 19.1381 30.3987 19.9117C30.8214 20.6854 31.3061 21.2685 31.8529 21.6609C32.4026 22.0518 32.9703 22.2647 33.5559 22.2997C34.1445 22.3332 34.7093 22.2021 35.2503 21.9066C35.547 21.7445 35.8097 21.548 36.0387 21.3172C36.2676 21.0864 36.4503 20.8298 36.5869 20.5475C36.7248 20.2606 36.8079 19.9565 36.8362 19.6351C36.8659 19.3092 36.8285 18.9746 36.724 18.6313L37.806 18.0402C37.9741 18.5413 38.049 19.031 38.0308 19.5093C38.0126 19.9876 37.9127 20.4406 37.731 20.8685C37.5477 21.2934 37.2926 21.6802 36.9656 22.0288C36.6416 22.3758 36.2541 22.6724 35.8033 22.9187C35.0412 23.3351 34.2618 23.5192 33.4651 23.4711C32.6683 23.423 31.9123 23.1487 31.1969 22.6482C30.4816 22.1477 29.8665 21.4262 29.3516 20.4838C28.8367 19.5414 28.5619 18.6341 28.5272 17.7617C28.4925 16.8894 28.6701 16.1049 29.06 15.4085C29.45 14.712 30.026 14.1556 30.788 13.7392C31.2389 13.4929 31.6978 13.3271 32.1649 13.2419C32.6349 13.1551 33.099 13.1508 33.5572 13.229C34.0138 13.3044 34.4482 13.4636 34.8605 13.7067C35.2712 13.9468 35.6428 14.2744 35.9754 14.6895Z" fill="#2E2E2E"/>
<path d="M40.4825 20.5172L38.2072 10.5928L44.1967 9.21967L44.4411 10.2858L39.6534 11.3834L40.4222 14.7367L44.8998 13.7102L45.1442 14.7763L40.6666 15.8028L41.4398 19.1756L46.3051 18.0601L46.5495 19.1262L40.4825 20.5172Z" fill="#2E2E2E"/>
<path d="M53.8254 11.1098C53.7531 10.6077 53.5015 10.2228 53.0704 9.95505C52.6393 9.68733 52.1157 9.56119 51.4994 9.57661C51.0488 9.58788 50.6563 9.67064 50.322 9.82488C49.991 9.97904 49.7342 10.186 49.5518 10.4459C49.3726 10.7057 49.2871 10.9979 49.2952 11.3226C49.302 11.5943 49.3725 11.8263 49.5066 12.0185C49.6439 12.2074 49.8169 12.3639 50.0256 12.488C50.2341 12.6087 50.4521 12.7077 50.6795 12.7849C50.9068 12.8588 51.1155 12.9182 51.3056 12.9632L52.3463 13.2157C52.6132 13.2786 52.9104 13.3673 53.2382 13.4818C53.5693 13.5962 53.8866 13.7557 54.1901 13.9603C54.4969 14.1615 54.7521 14.4236 54.9558 14.7467C55.1595 15.0699 55.2673 15.47 55.2792 15.9471C55.293 16.4971 55.1613 16.9978 54.8841 17.449C54.6103 17.9001 54.2016 18.2634 53.6582 18.5389C53.118 18.8143 52.4569 18.9618 51.675 18.9814C50.9461 18.9996 50.3119 18.8978 49.7726 18.6759C49.2366 18.4539 48.8109 18.1363 48.4955 17.7232C48.1835 17.3099 48.0006 16.8255 47.9469 16.2698L49.2192 16.238C49.262 16.6215 49.3992 16.9364 49.6308 17.1825C49.8656 17.4253 50.1585 17.6037 50.5095 17.7175C50.8637 17.828 51.2429 17.8782 51.6471 17.8681C52.1176 17.8563 52.5382 17.7696 52.9088 17.6078C53.2793 17.4427 53.5705 17.2199 53.7823 16.9394C53.994 16.6556 54.0952 16.3282 54.0859 15.9571C54.0774 15.6191 53.9761 15.3465 53.782 15.1392C53.5878 14.9318 53.335 14.7657 53.0235 14.6409C52.7121 14.5161 52.3762 14.4085 52.0159 14.318L50.7545 13.9915C49.9535 13.7828 49.3158 13.4722 48.8413 13.0597C48.3669 12.6472 48.121 12.098 48.1039 11.4121C48.0896 10.8422 48.2313 10.3413 48.5288 9.90953C48.8296 9.47431 49.2387 9.13253 49.7564 8.88419C50.2772 8.63244 50.8624 8.49845 51.5118 8.4822C52.1678 8.46579 52.7539 8.56882 53.2701 8.79131C53.7861 9.01048 54.1983 9.31844 54.5066 9.71521C54.8183 10.1119 54.9888 10.5668 55.0182 11.08L53.8254 11.1098Z" fill="#2E2E2E"/>
<path d="M68.0493 6.09365L67.7972 16.2723L66.5646 16.2418L66.8167 6.06312L68.0493 6.09365Z" fill="#2E2E2E"/>
<path d="M79.7926 8.43231L77.1485 18.2648L75.9963 17.955L72.7143 8.79413L72.6183 8.76831L70.5423 16.4884L69.3517 16.1682L71.9957 6.33568L73.1479 6.64553L76.444 15.8308L76.54 15.8566L78.6211 8.1173L79.7926 8.43231Z" fill="#2E2E2E"/>
<path d="M90.6315 12.856L90.9966 11.8249L98.1951 14.3735L97.8301 15.4045L94.8119 14.336L91.7789 22.903L90.6166 22.4915L93.6497 13.9245L90.6315 12.856Z" fill="#2E2E2E"/>
<path d="M95.2401 24.1169L101.082 15.7776L102.092 16.485L99.4902 20.1986L103.937 23.3134L106.538 19.5997L107.548 20.3071L101.706 28.6465L100.697 27.9391L103.309 24.2092L98.8627 21.0944L96.25 24.8243L95.2401 24.1169Z" fill="#2E2E2E"/>
<path d="M102.782 29.6555L110.895 23.5035L114.608 28.3999L113.737 29.0608L110.769 25.1468L108.027 27.2255L110.803 30.8859L109.931 31.5468L107.156 27.8864L104.399 29.9771L107.415 33.9544L106.543 34.6153L102.782 29.6555Z" fill="#2E2E2E"/>
<defs>
<filter id="filter0_d_255_105" x="47.2198" y="45.128" width="98.9663" height="70.447" filterUnits="userSpaceOnUse" color-interpolation-filters="sRGB">
<feFlood flood-opacity="0" result="BackgroundImageFix"/>
<feColorMatrix in="SourceAlpha" type="matrix" values="0 0 0 0 0 0 0 0 0 0 0 0 0 0 0 0 0 0 127 0" result="hardAlpha"/>
<feOffset dx="-5" dy="4"/>
<feGaussianBlur stdDeviation="3"/>
<feComposite in2="hardAlpha" operator="out"/>
<feColorMatrix type="matrix" values="0 0 0 0 0 0 0 0 0 0 0 0 0 0 0 0 0 0 0.4 0"/>
<feBlend mode="normal" in2="BackgroundImageFix" result="effect1_dropShadow_255_105"/>
<feBlend mode="normal" in="SourceGraphic" in2="effect1_dropShadow_255_105" result="shape"/>
</filter>
</defs>
</svg>
