<svg width="161" height="122" viewBox="0 0 161 122" fill="none" xmlns="http://www.w3.org/2000/svg">
<path d="M109.538 58.2769C109.538 53.478 108.413 48.7262 106.228 44.2926C104.043 39.8591 100.841 35.8307 96.8035 32.4374C92.7662 29.0441 87.9733 26.3524 82.6984 24.516C77.4234 22.6795 71.7698 21.7343 66.0602 21.7343C54.5292 21.7343 43.4706 25.5843 35.3169 32.4374C27.1633 39.2904 22.5826 48.5852 22.5826 58.2769C22.5826 67.9686 27.1633 77.2633 35.3169 84.1164C43.4706 90.9694 54.5292 94.8195 66.0602 94.8195C77.5912 94.8195 88.6499 90.9694 96.8035 84.1164C104.957 77.2633 109.538 67.9686 109.538 58.2769ZM100.538 54.6226H87.799C87.0819 46.0283 83.5785 37.7632 77.6687 30.7238C83.7402 32.5362 89.0934 35.7304 93.1315 39.9502C97.1695 44.17 99.7336 49.2497 100.538 54.6226ZM53.3648 61.9311H79.1035C77.9908 70.9593 73.4125 79.4378 66.0602 86.0858C58.7128 79.4656 54.2395 70.9546 53.3648 61.9311ZM53.3648 54.6226C54.3773 45.6398 58.8325 37.1762 66.0602 30.5045C73.4719 37.1046 78.0606 45.5895 79.1035 54.6226H53.3648ZM54.93 30.6142C48.989 37.6925 45.4292 45.9866 44.6258 54.6226H31.5825C32.4038 49.1833 35.0286 44.0477 39.157 39.8023C43.2855 35.557 48.7512 32.3731 54.93 30.6142ZM31.5825 61.9311H44.6258C45.3418 70.5598 48.8774 78.855 54.843 85.9031C48.6865 84.1356 43.2431 80.9522 39.1314 76.7147C35.0196 72.4772 32.4043 67.3554 31.5825 61.9311ZM77.4513 85.8665C83.4008 78.8163 86.9758 70.547 87.799 61.9311H100.625C99.8027 67.3403 97.1968 72.4484 93.1017 76.6781C89.0066 80.9078 83.5856 84.0905 77.4513 85.8665Z" fill="#314A72"/>
<g filter="url(#filter0_d_255_105)">
<path d="M101.595 106.575C103.996 106.575 105.943 104.939 105.943 102.921C105.943 100.902 103.996 99.2664 101.595 99.2664C99.1938 99.2664 97.2473 100.902 97.2473 102.921C97.2473 104.939 99.1938 106.575 101.595 106.575Z" fill="#6B9EEF"/>
<path d="M101.595 84.6493C95.9679 84.6492 90.56 86.483 86.5084 89.7653C85.6782 90.4388 85.2003 91.362 85.1799 92.3317C85.1595 93.3014 85.5983 94.2382 86.3997 94.936C87.2011 95.6338 88.2995 96.0355 89.4532 96.0526C90.607 96.0697 91.7215 95.701 92.5518 95.0274C95.0209 93.1271 98.2473 92.0731 101.595 92.0731C104.943 92.0731 108.169 93.1271 110.638 95.0274C111.469 95.701 112.583 96.0697 113.737 96.0526C114.891 96.0355 115.989 95.6338 116.791 94.936C117.592 94.2382 118.031 93.3014 118.01 92.3317C117.99 91.362 117.512 90.4388 116.682 89.7653C112.63 86.483 107.222 84.6492 101.595 84.6493Z" fill="#6B9EEF"/>
<path d="M101.595 66.3781C96.344 66.381 91.1472 67.2722 86.3145 68.9987C81.4817 70.7252 77.1118 73.2515 73.4652 76.4273C73.0684 76.78 72.7581 77.195 72.5521 77.6485C72.3461 78.102 72.2484 78.5851 72.2645 79.0704C72.2807 79.5556 72.4104 80.0334 72.6462 80.4765C72.8821 80.9197 73.2195 81.3194 73.6391 81.6529C74.4866 82.3265 75.6178 82.6895 76.7838 82.6621C77.3611 82.6485 77.9296 82.5395 78.4568 82.3412C78.984 82.143 79.4596 81.8594 79.8564 81.5067C82.6954 79.0311 86.0991 77.0619 89.8641 75.7169C93.6291 74.3719 97.6781 73.6786 101.769 73.6786C105.86 73.6786 109.909 74.3719 113.674 75.7169C117.439 77.0619 120.843 79.0311 123.682 81.5067C124.084 81.852 124.565 82.1267 125.095 82.3149C125.624 82.5031 126.193 82.601 126.769 82.603C127.618 82.6003 128.448 82.3884 129.156 81.9935C129.864 81.5986 130.419 81.038 130.752 80.3811C131.085 79.7241 131.182 78.9995 131.03 78.2968C130.879 77.5941 130.485 76.9442 129.899 76.4273C126.232 73.2338 121.834 70.6971 116.97 68.9701C112.105 67.243 106.876 66.3613 101.595 66.3781Z" fill="#6B9EEF"/>
<path d="M143.855 62.4679C132.509 53.2686 117.36 48.1279 101.595 48.1279C85.8304 48.1279 70.6806 53.2686 59.3348 62.4679C58.6011 63.1537 58.203 64.0472 58.2204 64.9694C58.2377 65.8915 58.6693 66.774 59.4285 67.4399C60.1878 68.1057 61.2184 68.5057 62.3139 68.5595C63.4093 68.6133 64.4884 68.317 65.3347 67.7301C75.0633 59.8263 88.0646 55.4083 101.595 55.4083C115.125 55.4083 128.127 59.8263 137.855 67.7301C138.661 68.383 139.736 68.7495 140.855 68.7533C141.441 68.7514 142.02 68.6501 142.558 68.4554C143.096 68.2607 143.582 67.9767 143.986 67.6204C144.778 66.9214 145.21 65.987 145.185 65.0216C145.161 64.0561 144.683 63.138 143.855 62.4679Z" fill="#6B9EEF"/>
</g>
<path d="M123.029 112.133L113.686 107.221L114.54 106.305L122.055 110.408L122.123 110.335L117.539 103.092L118.489 102.075L126.03 106.148L126.098 106.075L121.488 98.8616L122.342 97.9457L127.886 106.928L127.018 107.859L119.553 103.965L119.499 104.024L123.897 111.202L123.029 112.133ZM132.647 94.3654C133.433 95.0981 133.979 95.873 134.286 96.6902C134.593 97.5074 134.671 98.3079 134.52 99.0917C134.369 99.8754 133.997 100.585 133.405 101.22C132.812 101.854 132.13 102.274 131.359 102.479C130.587 102.684 129.783 102.661 128.947 102.411C128.11 102.161 127.3 101.669 126.514 100.937C125.729 100.204 125.183 99.4291 124.876 98.6119C124.569 97.7947 124.491 96.9942 124.642 96.2105C124.793 95.4267 125.165 94.7174 125.757 94.0826C126.35 93.4477 127.032 93.0279 127.803 92.823C128.575 92.6182 129.379 92.6409 130.215 92.8911C131.052 93.1413 131.862 93.6327 132.647 94.3654ZM131.833 95.2377C131.189 94.6362 130.544 94.2363 129.9 94.0381C129.257 93.8375 128.651 93.8139 128.082 93.9672C127.515 94.1181 127.021 94.4188 126.601 94.8695C126.18 95.3202 125.913 95.8348 125.799 96.4132C125.688 96.9893 125.753 97.592 125.995 98.2215C126.24 98.8486 126.684 99.4629 127.329 100.064C127.973 100.666 128.617 101.067 129.259 101.268C129.904 101.466 130.51 101.489 131.077 101.339C131.646 101.185 132.141 100.883 132.561 100.433C132.982 99.9819 133.248 99.4686 133.359 98.8925C133.473 98.3141 133.408 97.7113 133.163 97.0842C132.921 96.4548 132.478 95.8392 131.833 95.2377ZM137.784 96.3233L130.34 89.3762L132.687 86.8611C133.23 86.2796 133.775 85.895 134.322 85.7072C134.867 85.5173 135.395 85.4932 135.906 85.635C136.417 85.7768 136.892 86.0524 137.331 86.4617C137.769 86.871 138.075 87.3236 138.247 87.8195C138.418 88.3154 138.428 88.8392 138.276 89.3908C138.122 89.9402 137.775 90.5033 137.237 91.0799L135.337 93.1153L134.523 92.3555L136.396 90.3492C136.767 89.9518 137.007 89.5777 137.117 89.2268C137.229 88.8736 137.229 88.5429 137.118 88.2348C137.006 87.9221 136.801 87.6267 136.503 87.3485C136.205 87.0704 135.893 86.883 135.566 86.7864C135.239 86.6898 134.901 86.7074 134.551 86.839C134.199 86.9684 133.835 87.2342 133.46 87.6365L131.981 89.2211L138.625 95.4219L137.784 96.3233ZM137.71 89.6988L142.763 90.9877L141.786 92.0345L136.76 90.7165L137.71 89.6988ZM143.894 89.7765L136.45 82.8294L137.291 81.9281L143.935 88.1289L147.165 84.6687L147.964 85.415L143.894 89.7765ZM151.411 81.7223L149.267 84.0193L141.823 77.0723L144.062 74.6734C144.736 73.9514 145.462 73.4726 146.239 73.237C147.014 72.9992 147.807 73.0024 148.617 73.2464C149.425 73.4882 150.215 73.9687 150.985 74.6878C151.761 75.4115 152.299 76.1726 152.601 76.9712C152.901 77.7676 152.954 78.5701 152.762 79.3787C152.567 80.1851 152.116 80.9663 151.411 81.7223ZM149.309 82.3717L150.557 81.0341C151.131 80.4187 151.489 79.7978 151.629 79.1716C151.769 78.5453 151.713 77.9281 151.459 77.3201C151.206 76.7121 150.777 76.1255 150.171 75.5601C149.57 74.9993 148.961 74.6146 148.344 74.4061C147.725 74.1953 147.117 74.1764 146.52 74.3494C145.921 74.5202 145.35 74.8963 144.807 75.4778L143.464 76.9171L149.309 82.3717Z" fill="#2E2E2E"/>
<path d="M44.929 105.176L46.313 95.089L47.5345 95.2566L46.1505 105.344L44.929 105.176Z" fill="#2E2E2E"/>
<path d="M33.6349 102.027L36.9386 92.3961L38.0672 92.7833L40.7214 102.145L40.8154 102.178L43.4094 94.6158L44.5756 95.0159L41.2719 104.647L40.1433 104.26L37.4768 94.8723L37.3827 94.84L34.7823 102.421L33.6349 102.027Z" fill="#2E2E2E"/>
<path d="M31.0547 99.528L30.4591 100.445L24.0543 96.287L24.6499 95.3696L27.3353 97.1131L32.2841 89.4906L33.3183 90.162L28.3694 97.7845L31.0547 99.528Z" fill="#2E2E2E"/>
<path d="M29.0458 87.2198L21.7986 94.3716L17.4824 89.9978L18.2609 89.2295L21.7111 92.7257L24.1599 90.3092L20.9332 87.0395L21.7117 86.2712L24.9384 89.541L27.4013 87.1105L23.8952 83.5577L24.6737 82.7894L29.0458 87.2198Z" fill="#2E2E2E"/>
<path d="M23.703 81.624L15.0358 86.9672L13.2304 84.0386C12.813 83.3615 12.586 82.7344 12.5495 82.1572C12.5102 81.5819 12.6265 81.0663 12.8984 80.6105C13.1704 80.1548 13.5616 79.7695 14.0723 79.4547C14.583 79.1399 15.1002 78.9651 15.6239 78.9304C16.1476 78.8957 16.6553 79.0246 17.1471 79.3171C17.6361 79.6113 18.0876 80.0942 18.5016 80.7657L19.9626 83.1356L19.0146 83.72L17.5745 81.384C17.2892 80.9213 16.9919 80.5906 16.6826 80.3919C16.3715 80.1905 16.0526 80.1028 15.7261 80.1289C15.395 80.1539 15.0559 80.2734 14.7089 80.4873C14.3619 80.7012 14.0986 80.9531 13.919 81.2429C13.7395 81.5327 13.667 81.8636 13.7016 82.2355C13.7334 82.6091 13.8936 83.0301 14.1823 83.4985L15.3199 85.3437L23.056 80.5745L23.703 81.624ZM17.2945 79.9446L19.8731 75.4114L20.6245 76.6302L18.025 81.1296L17.2945 79.9446Z" fill="#2E2E2E"/>
<path d="M7.82108 70.1393L17.6516 67.4879L17.9623 68.6399L11.6886 76.0785L11.7145 76.1745L19.433 74.0928L19.7541 75.2832L9.92353 77.9346L9.61282 76.7826L15.9006 69.3196L15.8747 69.2236L8.13696 71.3105L7.82108 70.1393Z" fill="#2E2E2E"/>
<path d="M17.6012 66.295L7.44078 65.6348L7.83919 59.5029L8.93064 59.5738L8.61217 64.4754L12.0453 64.6984L12.3431 60.1143L13.4346 60.1853L13.1367 64.7693L16.5897 64.9937L16.9133 60.0127L18.0047 60.0836L17.6012 66.295Z" fill="#2E2E2E"/>
<path d="M9.5317 56.2136L8.5092 55.8253L11.2203 48.6864L12.2428 49.0747L11.1061 52.0679L19.6022 55.2944L19.1644 56.447L10.6684 53.2205L9.5317 56.2136Z" fill="#2E2E2E"/>
<path d="M19.8321 40.5592L19.3607 41.7628L11.2438 34.5681L11.708 33.3831L22.552 33.6155L22.0806 34.8191L12.9903 34.526L12.9612 34.6001L19.8321 40.5592ZM16.3029 38.6642L18.2032 33.8129L19.2216 34.2118L17.3213 39.0631L16.3029 38.6642Z" fill="#2E2E2E"/>
<path d="M22.1232 22.3928L21.3747 23.3726C21.0486 23.2152 20.7236 23.1275 20.3996 23.1094C20.0776 23.0886 19.7657 23.1256 19.4639 23.2204C19.1615 23.3105 18.8789 23.4512 18.616 23.6425C18.3531 23.8337 18.119 24.0637 17.9138 24.3323C17.5396 24.8222 17.3243 25.3605 17.2681 25.9474C17.2139 26.5316 17.3382 27.125 17.6411 27.7276C17.9461 28.3276 18.4488 28.8952 19.1494 29.4304C19.85 29.9656 20.5298 30.3014 21.1889 30.4378C21.8499 30.5716 22.4551 30.5355 23.0045 30.3296C23.5559 30.121 24.0187 29.7718 24.393 29.2819C24.5982 29.0133 24.7585 28.727 24.8739 28.4231C24.9893 28.1191 25.052 27.8105 25.0621 27.497C25.0715 27.1789 25.0239 26.8672 24.9192 26.562C24.8139 26.2522 24.6438 25.9616 24.4089 25.6904L25.1573 24.7107C25.5145 25.1003 25.7819 25.5173 25.9596 25.9617C26.1374 26.4061 26.2301 26.8607 26.2379 27.3254C26.2431 27.7882 26.1671 28.2453 26.01 28.6966C25.8549 29.1454 25.6214 29.5739 25.3095 29.9821C24.7824 30.6721 24.145 31.1571 23.3974 31.4368C22.6499 31.7166 21.8476 31.7731 20.9906 31.6064C20.1336 31.4397 19.2784 31.0304 18.4251 30.3785C17.5717 29.7266 16.952 29.0092 16.5658 28.2262C16.1796 27.4432 16.0232 26.6543 16.0965 25.8595C16.1699 25.0646 16.4701 24.3222 16.9973 23.6321C17.3091 23.2239 17.6611 22.8859 18.0533 22.6183C18.4475 22.348 18.8698 22.1555 19.3202 22.0408C19.7681 21.9241 20.2297 21.8931 20.7052 21.9477C21.1781 22.0003 21.6507 22.1486 22.1232 22.3928Z" fill="#2E2E2E"/>
<path d="M31.454 15.4836L30.4231 16.1599C30.1676 15.9033 29.89 15.7128 29.5903 15.5883C29.2934 15.462 28.9869 15.3935 28.6707 15.3829C28.3555 15.3677 28.0422 15.4067 27.7308 15.5C27.4194 15.5933 27.1224 15.7327 26.8397 15.9181C26.3242 16.2562 25.9427 16.6928 25.6951 17.2278C25.4503 17.761 25.3709 18.3621 25.4569 19.031C25.5457 19.6982 25.8319 20.4003 26.3155 21.1375C26.799 21.8747 27.3291 22.4169 27.9056 22.764C28.485 23.1094 29.0679 23.276 29.6545 23.2638C30.2439 23.2498 30.7963 23.0738 31.3118 22.7356C31.5944 22.5502 31.8406 22.3332 32.0502 22.0848C32.2598 21.8363 32.4213 21.5658 32.5347 21.2734C32.6491 20.9764 32.7075 20.6666 32.7099 20.344C32.7132 20.0167 32.649 19.6862 32.5173 19.3525L33.5482 18.6762C33.7561 19.1622 33.8701 19.6443 33.8905 20.1225C33.9108 20.6007 33.8476 21.0603 33.701 21.5014C33.5524 21.9397 33.3293 22.3457 33.0314 22.7195C32.7363 23.0914 32.374 23.4183 31.9444 23.7001C31.2183 24.1763 30.4562 24.4226 29.6582 24.4387C28.8601 24.4548 28.0845 24.2422 27.3312 23.8008C26.5779 23.3595 25.9068 22.6899 25.3178 21.7919C24.7288 20.894 24.3819 20.0117 24.2771 19.145C24.1723 18.2782 24.2863 17.4821 24.6189 16.7565C24.9516 16.0309 25.481 15.43 26.2071 14.9537C26.6366 14.6719 27.0808 14.4697 27.5395 14.3472C28.001 14.2229 28.4632 14.1813 28.9262 14.2224C29.3874 14.2608 29.8332 14.3845 30.2637 14.5936C30.6924 14.8 31.0892 15.0966 31.454 15.4836Z" fill="#2E2E2E"/>
<path d="M36.4152 20.9299L33.3491 11.2208L39.2087 9.3703L39.5381 10.4133L34.8542 11.8924L35.8902 15.1731L40.2707 13.7897L40.6001 14.8327L36.2196 16.2161L37.2616 19.5157L42.0214 18.0125L42.3507 19.0555L36.4152 20.9299Z" fill="#2E2E2E"/>
<path d="M47.4336 9.55982C47.3212 9.06512 47.0394 8.70168 46.5882 8.46951C46.137 8.23734 45.6049 8.15372 44.9918 8.21866C44.5436 8.26614 44.159 8.3802 43.8382 8.56083C43.5207 8.74112 43.2814 8.9681 43.1204 9.24179C42.9627 9.51513 42.901 9.8133 42.9352 10.1363C42.9638 10.4066 43.0527 10.6321 43.2019 10.813C43.3539 10.9902 43.539 11.1322 43.7569 11.2391C43.9746 11.3427 44.1998 11.4239 44.4326 11.4825C44.6651 11.5379 44.8779 11.5803 45.0711 11.6099L46.1287 11.7778C46.3997 11.8191 46.7032 11.8836 47.0391 11.9713C47.3783 12.0587 47.7074 12.1922 48.0264 12.3717C48.3483 12.5476 48.6238 12.7883 48.8528 13.094C49.0819 13.3997 49.2215 13.7899 49.2718 14.2645C49.3297 14.8117 49.2387 15.3212 48.9988 15.7933C48.7621 16.2649 48.384 16.66 47.8644 16.9783C47.3482 17.2963 46.7011 17.4965 45.9233 17.5789C45.1982 17.6557 44.5579 17.6052 44.0025 17.4274C43.4503 17.2492 43.0005 16.9669 42.6529 16.5804C42.3086 16.1936 42.0874 15.7255 41.9892 15.1759L43.2549 15.0419C43.3283 15.4207 43.4904 15.7235 43.741 15.9502C43.9946 16.1734 44.3009 16.3276 44.6599 16.4128C45.0219 16.4945 45.4039 16.514 45.806 16.4714C46.274 16.4218 46.6862 16.3015 47.0426 16.1105C47.3986 15.9161 47.6709 15.6706 47.8595 15.374C48.0477 15.0741 48.1223 14.7396 48.0831 14.3704C48.0475 14.0342 47.9246 13.7706 47.7144 13.5796C47.5042 13.3886 47.2388 13.2433 46.9184 13.144C46.5979 13.0446 46.2544 12.9643 45.888 12.9032L44.6044 12.6792C43.7893 12.5355 43.1287 12.2772 42.6225 11.9042C42.1164 11.5312 41.8272 11.0036 41.7549 10.3213C41.6949 9.75441 41.7958 9.24379 42.0576 8.78944C42.3224 8.33144 42.7028 7.95785 43.1988 7.66868C43.6977 7.37586 44.2701 7.19523 44.9161 7.12681C45.5687 7.05768 46.1612 7.11324 46.6936 7.29348C47.2256 7.47044 47.6612 7.74425 48.0005 8.11494C48.343 8.48527 48.5495 8.92501 48.6201 9.43413L47.4336 9.55982Z" fill="#2E2E2E"/>
<path d="M56.4336 7.55976C56.3212 7.06506 56.0394 6.70162 55.5882 6.46945C55.137 6.23728 54.6049 6.15366 53.9918 6.2186C53.5436 6.26608 53.159 6.38014 52.8382 6.56077C52.5207 6.74105 52.2814 6.96804 52.1204 7.24173C51.9627 7.51507 51.901 7.81324 51.9352 8.13624C51.9638 8.40651 52.0527 8.63207 52.2019 8.81292C52.3539 8.99012 52.539 9.13216 52.7569 9.23906C52.9746 9.34266 53.1998 9.42379 53.4326 9.48245C53.6651 9.53781 53.8779 9.58026 54.0711 9.6098L55.1287 9.77773C55.3997 9.81902 55.7032 9.88353 56.0391 9.97126C56.3783 10.0586 56.7074 10.1921 57.0264 10.3716C57.3483 10.5475 57.6238 10.7883 57.8528 11.094C58.0819 11.3997 58.2215 11.7898 58.2718 12.2645C58.3297 12.8116 58.2387 13.3212 57.9988 13.7932C57.7621 14.2649 57.384 14.6599 56.8644 14.9782C56.3482 15.2962 55.7011 15.4964 54.9233 15.5788C54.1982 15.6556 53.5579 15.6051 53.0025 15.4273C52.4503 15.2492 52.0005 14.9668 51.6529 14.5804C51.3086 14.1936 51.0874 13.7254 50.9892 13.1759L52.2549 13.0418C52.3283 13.4206 52.4904 13.7234 52.741 13.9502C52.9946 14.1733 53.3009 14.3275 53.6599 14.4128C54.0219 14.4944 54.4039 14.514 54.806 14.4714C55.274 14.4218 55.6862 14.3015 56.0426 14.1104C56.3986 13.916 56.6709 13.6706 56.8595 13.3739C57.0477 13.074 57.1223 12.7395 57.0831 12.3704C57.0475 12.0342 56.9246 11.7706 56.7144 11.5795C56.5042 11.3885 56.2388 11.2433 55.9184 11.1439C55.5979 11.0445 55.2544 10.9643 54.888 10.9031L53.6044 10.6791C52.7893 10.5355 52.1287 10.2772 51.6225 9.90416C51.1164 9.53115 50.8272 9.00352 50.7549 8.32126C50.6949 7.75435 50.7958 7.24373 51.0576 6.78938C51.3224 6.33138 51.7028 5.95779 52.1988 5.66862C52.6977 5.3758 53.2701 5.19517 53.9161 5.12674C54.5687 5.05762 55.1612 5.11318 55.6936 5.29342C56.2256 5.47037 56.6612 5.74419 57.0005 6.11488C57.343 6.48521 57.5495 6.92495 57.6201 7.43407L56.4336 7.55976Z" fill="#2E2E2E"/>
<path d="M69.0894 6.09365L68.8373 16.2723L67.6047 16.2418L67.8568 6.06312L69.0894 6.09365Z" fill="#2E2E2E"/>
<path d="M80.8327 8.43231L78.1886 18.2648L77.0364 17.955L73.7544 8.79413L73.6584 8.76831L71.5824 16.4884L70.3918 16.1682L73.0358 6.33568L74.188 6.64553L77.4841 15.8308L77.5801 15.8566L79.6612 8.1173L80.8327 8.43231Z" fill="#2E2E2E"/>
<path d="M90.6315 13.8558L90.9966 12.8248L98.1951 15.3734L97.8301 16.4044L94.8119 15.3359L91.7789 23.9029L90.6166 23.4914L93.6497 14.9244L90.6315 13.8558Z" fill="#2E2E2E"/>
<path d="M95.2401 25.1168L101.082 16.7775L102.092 17.4848L99.4902 21.1985L103.937 24.3132L106.538 20.5996L107.548 21.307L101.706 29.6463L100.697 28.939L103.309 25.2091L98.8627 22.0943L96.25 25.8242L95.2401 25.1168Z" fill="#2E2E2E"/>
<path d="M102.782 30.6553L110.895 24.5034L114.608 29.3998L113.737 30.0607L110.769 26.1467L108.027 28.2254L110.803 31.8858L109.931 32.5467L107.156 28.8863L104.399 30.9769L107.415 34.9543L106.543 35.6151L102.782 30.6553Z" fill="#2E2E2E"/>
<defs>
<filter id="filter0_d_255_105" x="47.2198" y="46.1279" width="98.9663" height="70.447" filterUnits="userSpaceOnUse" color-interpolation-filters="sRGB">
<feFlood flood-opacity="0" result="BackgroundImageFix"/>
<feColorMatrix in="SourceAlpha" type="matrix" values="0 0 0 0 0 0 0 0 0 0 0 0 0 0 0 0 0 0 127 0" result="hardAlpha"/>
<feOffset dx="-5" dy="4"/>
<feGaussianBlur stdDeviation="3"/>
<feComposite in2="hardAlpha" operator="out"/>
<feColorMatrix type="matrix" values="0 0 0 0 0 0 0 0 0 0 0 0 0 0 0 0 0 0 0.4 0"/>
<feBlend mode="normal" in2="BackgroundImageFix" result="effect1_dropShadow_255_105"/>
<feBlend mode="normal" in="SourceGraphic" in2="effect1_dropShadow_255_105" result="shape"/>
</filter>
</defs>
</svg>
